<?xml version="1.0" standalone="no"?>
<!DOCTYPE svg PUBLIC "-//W3C//DTD SVG 20010904//EN"
 "http://www.w3.org/TR/2001/REC-SVG-20010904/DTD/svg10.dtd">
<svg version="1.0" xmlns="http://www.w3.org/2000/svg"
 width="316.000000pt" height="316.000000pt" viewBox="0 0 316.000000 316.000000"
 preserveAspectRatio="xMidYMid meet">

<g transform="translate(0.000000,316.000000) scale(0.100000,-0.100000)"
fill="#000000" stroke="none">
<path d="M10 3156 c0 -17 24 -60 51 -90 l32 -37 -18 -62 c-10 -34 -23 -68 -28
-74 -6 -9 -5 -13 2 -13 8 0 11 -11 9 -27 -2 -16 -8 -27 -14 -26 -7 1 -17 -18
-24 -43 -15 -54 -7 -64 43 -55 l32 6 -32 3 c-37 4 -39 9 -19 57 17 40 22 42
50 18 16 -14 15 -11 -3 9 -20 23 -23 34 -18 70 21 141 41 151 155 75 65 -43
78 -55 71 -70 -5 -9 -13 -25 -17 -34 -9 -17 -86 -75 -219 -166 l-63 -42 0
-164 c0 -129 3 -161 13 -154 31 25 284 210 297 218 12 7 13 6 4 -6 -6 -8 -32
-71 -57 -140 -26 -69 -59 -148 -72 -175 l-26 -49 5 98 c4 78 3 95 -7 86 -13
-13 -14 -25 -17 -155 -1 -60 3 -82 19 -107 11 -18 21 -26 21 -19 0 7 5 10 12
6 7 -4 8 -3 4 5 -4 6 -12 9 -17 6 -26 -17 10 76 38 96 27 20 38 40 18 33 -15
-6 -15 -3 0 32 9 22 19 46 23 54 3 8 34 67 69 132 35 64 65 127 67 140 5 52
22 56 104 23 41 -17 53 -37 31 -51 -6 -3 -8 -16 -5 -27 3 -12 1 -26 -4 -32
-31 -37 -103 -254 -119 -356 -6 -38 -5 -49 5 -49 8 0 14 6 14 13 2 65 11 129
24 162 8 22 15 33 16 25 1 -8 10 9 20 38 11 29 16 60 13 69 -4 11 -2 14 5 9 8
-4 10 -2 6 8 -3 8 2 29 11 48 30 59 157 241 226 323 66 79 169 167 156 132 -4
-11 15 -3 55 24 36 25 63 38 66 31 2 -6 13 -23 25 -39 32 -40 18 -93 -25 -93
-17 0 -18 3 -8 15 28 34 -11 11 -73 -43 -79 -68 -101 -93 -194 -227 -71 -102
-121 -191 -129 -228 -10 -57 -26 -88 -41 -82 -13 4 -13 3 -4 -8 13 -16 -22
-145 -45 -163 -30 -24 -49 -161 -49 -364 0 -162 3 -206 19 -260 10 -36 19 -75
20 -87 1 -11 4 -19 7 -17 4 2 19 -25 34 -61 15 -35 50 -96 76 -136 54 -79 67
-126 21 -72 -15 18 -38 52 -51 75 -20 38 -22 39 -17 13 11 -51 -13 -2 -35 73
-10 36 -24 69 -30 72 -15 10 -55 159 -68 254 -6 43 -14 83 -18 89 -3 5 -9 71
-14 146 l-7 136 0 -155 c0 -178 -30 -455 -44 -405 -24 87 -21 299 9 528 4 32
2 47 -6 47 -6 0 -11 -11 -11 -25 0 -30 -15 -33 -32 -6 -9 14 -17 17 -28 11
-13 -7 -43 17 -143 118 -89 90 -125 134 -123 147 2 11 1 14 -1 7 -3 -8 -11
-11 -19 -8 -12 5 -14 -46 -14 -337 l0 -342 80 -93 c79 -92 92 -111 68 -95 -7
4 -19 8 -27 9 -7 2 -22 12 -33 23 -10 12 -24 19 -29 15 -6 -3 -17 2 -24 12 -8
11 -15 15 -15 9 0 -5 -5 -3 -10 5 -7 10 -10 -47 -9 -173 0 -113 4 -185 10
-182 5 4 9 11 9 17 0 14 41 70 47 64 3 -2 -11 -38 -31 -80 -23 -49 -36 -90
-36 -117 l0 -41 40 32 c22 17 40 30 40 27 0 -7 -22 -47 -53 -94 -36 -57 -36
-90 1 -96 l27 -4 -27 -2 c-36 -1 -36 -18 0 -24 l27 -4 -27 -2 -28 -1 0 -380 0
-380 65 0 65 0 20 40 c13 26 27 40 40 40 29 0 32 -15 9 -44 -35 -45 -12 -42
29 2 24 26 48 42 62 42 24 0 22 -5 -24 -58 l-19 -22 248 0 c238 0 247 1 224
17 -49 37 -106 61 -63 28 18 -14 17 -15 -8 -4 -15 7 -25 16 -21 22 3 6 1 7 -4
4 -6 -4 -26 0 -44 9 -20 9 -25 13 -12 10 31 -6 29 12 -2 20 -14 3 -25 10 -25
15 0 5 -6 9 -14 9 -7 0 -42 13 -77 29 -35 15 -98 38 -139 50 -73 22 -170 71
-220 111 l-25 20 53 0 c40 0 62 -6 89 -25 20 -13 41 -21 46 -18 6 3 -8 15 -29
26 -21 11 -34 22 -27 24 6 2 25 -3 42 -11 40 -21 48 -20 26 4 -17 19 -17 20 1
20 10 0 27 -7 37 -15 19 -14 87 -10 97 6 8 11 151 -8 201 -27 24 -10 56 -26
71 -36 42 -29 238 -121 245 -114 3 3 21 -1 40 -9 20 -8 46 -15 59 -15 14 0 24
-6 24 -14 0 -9 18 -16 56 -21 96 -12 153 -34 199 -76 38 -35 49 -40 85 -37
l41 3 -55 83 c-31 46 -68 100 -83 120 l-27 37 26 -24 c15 -13 62 -68 105 -122
l78 -98 660 -1 659 0 -41 43 -41 42 29 50 c16 28 44 78 61 113 17 34 33 60 36
58 7 -7 21 -146 23 -231 2 -72 3 -75 26 -75 22 0 23 3 18 55 -4 54 -4 54 19
45 15 -5 56 -4 111 4 l86 13 25 -36 24 -36 0 166 0 165 -50 49 c-27 26 -47 52
-44 57 3 5 0 7 -6 6 -7 -2 -14 8 -16 21 -4 22 -2 23 38 18 33 -4 38 -3 23 5
-34 17 -65 65 -67 102 -1 19 -5 33 -10 30 -8 -5 58 125 108 213 24 41 24 44
24 337 l0 295 -40 57 c-22 32 -40 61 -40 66 0 19 20 5 48 -33 l31 -41 -1 76
c0 45 -5 79 -11 83 -24 17 -88 43 -82 33 11 -18 -3 -11 -31 15 -15 14 -33 25
-40 25 -8 0 -14 5 -14 11 0 5 -4 8 -10 4 -12 -7 -44 41 -36 54 4 5 -4 17 -16
25 -12 9 -17 16 -10 16 10 0 10 5 2 20 -9 16 -8 22 5 26 10 4 39 -17 88 -64
84 -81 142 -132 151 -132 3 0 6 73 6 163 0 161 0 164 -25 187 -30 29 -33 45
-4 30 26 -14 36 -6 19 15 -8 9 -8 15 -2 15 7 0 10 80 9 252 l-2 251 -47 16
c-26 9 -57 26 -70 38 -13 12 -42 26 -66 32 -44 9 -59 17 -51 25 2 3 56 -2 119
-10 63 -7 116 -14 118 -14 1 0 2 29 2 64 0 48 -4 65 -15 70 -19 7 -19 26 0 26
22 0 21 105 -1 114 -8 3 -12 2 -9 -4 8 -13 -8 -13 -23 0 -9 7 -9 7 -2 -2 17
-21 11 -29 -12 -17 -22 12 -22 11 -8 -6 14 -17 14 -18 -10 -5 -23 12 -24 12
-11 -3 16 -20 8 -22 -21 -6 -12 7 -18 7 -14 1 3 -6 3 -17 0 -26 -5 -13 -10
-13 -27 -4 -19 10 -20 9 -10 -4 11 -13 9 -14 -15 -13 -15 2 -36 6 -46 10 -14
6 -17 5 -12 -3 5 -8 2 -10 -8 -6 -13 5 -13 8 -2 19 27 27 227 145 236 140 6
-4 10 9 10 29 0 42 -6 43 -54 15 -19 -11 -41 -17 -47 -13 -8 5 -9 3 -4 -6 6
-10 4 -12 -8 -7 -11 4 -14 2 -10 -9 3 -9 -1 -14 -12 -14 -10 0 -14 5 -9 13 4
6 -10 -4 -32 -23 -21 -19 -41 -37 -44 -39 -3 -2 5 -1 18 2 12 3 20 2 17 -3 -7
-11 -89 -49 -180 -82 -68 -24 -73 -28 -35 -22 75 11 42 -2 -95 -36 -71 -17
-140 -41 -154 -51 -29 -23 -51 -25 -51 -4 0 22 59 100 75 100 18 0 95 103 95
126 0 10 11 31 25 47 14 17 25 33 25 36 0 3 -38 6 -85 6 -47 0 -85 -4 -85 -8
0 -21 -139 -174 -175 -192 -57 -29 -66 -24 -14 8 41 27 57 45 122 150 21 32
24 42 12 42 -8 0 -24 -17 -34 -37 -36 -68 -37 -69 -58 -52 -38 33 -146 89
-169 89 -23 0 -24 -3 -19 -42 l6 -43 -23 43 c-12 23 -28 42 -35 42 -18 0 -16
-9 12 -59 14 -24 24 -45 22 -47 -2 -2 -28 21 -57 51 l-54 55 -94 0 c-72 0 -91
-3 -85 -12 14 -23 12 -37 -5 -30 -11 4 -12 7 -4 10 10 3 10 7 1 18 -8 10 -34
14 -81 14 -90 0 -87 -17 8 -40 70 -16 150 -52 109 -49 -11 1 -28 -1 -38 -6
-11 -5 -47 1 -92 14 -79 23 -110 27 -87 12 10 -6 7 -10 -14 -15 -15 -4 -30 -3
-33 2 -3 4 -32 9 -64 9 -64 2 -121 28 -96 44 8 5 10 10 4 11 -5 1 28 5 75 8
63 5 30 7 -123 8 l-209 2 7 -30 c3 -16 2 -37 -4 -47 -8 -14 -10 -8 -11 30 0
56 -17 63 -23 10 l-4 -38 -1 38 -2 37 -59 0 c-49 0 -61 -4 -75 -22 l-17 -23 5
23 4 22 -161 0 c-145 0 -165 -2 -187 -20 -26 -20 -41 -25 -39 -12 4 21 -3 32
-17 32 -12 0 -15 -7 -12 -30 3 -18 -1 -35 -9 -41 -10 -9 -13 -8 -14 2 0 8 -4
4 -9 -8 -10 -24 -50 -51 -50 -34 0 12 -49 -6 -65 -23 -5 -6 -19 -13 -30 -14
-11 -2 -25 -8 -31 -13 -6 -5 -14 -6 -17 -2 -13 12 -7 23 11 23 26 0 54 29 76
78 11 23 22 42 26 42 11 0 22 -49 15 -60 -4 -6 -2 -10 3 -10 11 0 24 69 16 82
-3 4 -16 8 -29 8 -16 0 -25 -7 -29 -24 -4 -17 -17 -28 -41 -36 -43 -14 -63 -8
-103 31 -18 17 -32 27 -32 22 0 -31 111 -95 125 -72 4 5 10 9 15 9 14 0 -10
-48 -28 -55 -25 -9 -118 42 -157 87 l-37 43 21 -41 c11 -23 39 -58 61 -77 51
-44 36 -58 -24 -23 -45 26 -68 48 -65 62 3 16 -25 74 -35 71 -13 -4 -18 -65
-6 -72 15 -10 12 -35 -5 -35 -8 0 -15 5 -15 10 0 6 -7 10 -15 10 -9 0 -12 -6
-9 -15 4 -9 -1 -18 -10 -21 -18 -7 -66 31 -66 51 0 19 -31 75 -41 75 -5 0 -9
-2 -9 -4z m1085 -85 c-7 -32 -25 -43 -25 -15 0 19 20 57 27 51 3 -3 2 -19 -2
-36z m1145 19 c8 -5 11 -12 7 -16 -4 -4 -15 0 -24 9 -18 18 -8 23 17 7z
m-1243 -43 c-4 -15 -37 -44 -92 -81 -76 -52 -129 -103 -218 -210 l-24 -30 -1
50 c-1 45 2 53 28 73 17 12 35 19 40 16 6 -4 9 -2 8 4 -3 10 254 212 261 205
2 -2 1 -14 -2 -27z m883 -7 l-25 -7 30 -8 c114 -28 197 -57 184 -66 -22 -14
-48 -11 -113 15 -44 17 -80 24 -128 24 -37 0 -66 -4 -63 -8 7 -11 -17 -25 -40
-24 -11 1 -33 2 -48 3 -41 2 -25 17 25 24 24 4 61 12 82 18 40 11 40 11 18 28
-21 15 -19 16 41 12 45 -3 55 -6 37 -11z m-840 -30 c0 -5 -2 -10 -4 -10 -3 0
-8 5 -11 10 -3 6 -1 10 4 10 6 0 11 -4 11 -10z m50 6 c0 -3 -4 -8 -10 -11 -5
-3 -10 -1 -10 4 0 6 5 11 10 11 6 0 10 -2 10 -4z m1200 -17 c0 -5 -6 -9 -13
-9 -8 0 -14 6 -14 14 0 8 6 12 14 9 7 -3 13 -9 13 -14z m-45 -17 c-3 -3 -11 0
-18 7 -9 10 -8 11 6 5 10 -3 15 -9 12 -12z m-971 -30 c-56 -41 -69 -58 -48
-66 13 -5 9 -11 -21 -31 -96 -66 -175 -208 -211 -380 -28 -133 -31 -150 -29
-172 1 -14 -7 -25 -23 -32 -22 -11 -23 -10 -18 16 3 16 8 46 12 68 4 22 11 48
16 58 5 9 5 17 0 17 -5 0 -16 -21 -24 -47 l-16 -48 -1 45 c-2 103 70 284 144
363 17 18 21 27 12 27 -27 0 -146 -150 -221 -276 -63 -107 -116 -302 -116
-427 0 -33 -3 -58 -6 -55 -7 7 -6 163 1 203 3 17 17 71 30 121 14 51 25 103
25 117 0 37 95 212 148 274 26 30 47 58 47 63 0 12 13 24 29 26 8 1 44 25 81
53 60 46 77 56 89 49 2 -2 12 5 23 14 21 19 81 47 102 48 8 0 -4 -13 -25 -28z
m-984 8 c0 -5 -2 -10 -4 -10 -3 0 -8 5 -11 10 -3 6 -1 10 4 10 6 0 11 -4 11
-10z m124 -11 c-3 -5 -15 -14 -27 -20 -17 -9 -20 -9 -10 1 6 7 9 18 6 25 -3
10 2 12 16 8 11 -3 18 -9 15 -14z m1185 7 c-10 -9 -69 -36 -69 -32 0 7 52 35
64 36 5 0 7 -2 5 -4z m-1244 -16 c3 -5 1 -10 -4 -10 -6 0 -11 5 -11 10 0 6 2
10 4 10 3 0 8 -4 11 -10z m-10 -40 c-3 -5 -16 -15 -28 -21 -21 -10 -21 -9 2
10 25 23 36 27 26 11z m2430 -30 c-3 -5 -16 -10 -28 -9 -20 1 -20 2 3 9 14 4
26 8 28 9 2 1 0 -3 -3 -9z m-1260 -47 c-20 -26 -33 -53 -30 -61 3 -7 5 -18 5
-23 0 -6 4 -7 10 -4 15 9 88 -16 95 -33 5 -14 -10 -76 -25 -97 -3 -5 -12 -30
-19 -55 -8 -25 -17 -56 -21 -70 -4 -14 -13 -24 -19 -22 -6 1 -11 -4 -12 -10
-1 -37 -18 39 -21 96 -1 36 -6 66 -10 66 -10 0 -10 -1 -14 -85 -1 -38 -3 -74
-3 -79 -1 -6 -6 -5 -12 1 -13 13 -16 66 -5 122 7 38 6 43 -8 38 -9 -4 -19 0
-24 10 -8 13 -15 7 -41 -31 -18 -26 -42 -70 -54 -98 -11 -28 -23 -45 -25 -38
-4 10 -6 9 -13 -1 -19 -30 -8 12 21 87 30 74 30 77 13 97 -18 19 -17 19 7 13
24 -7 24 -6 6 8 -18 15 -18 16 10 26 16 7 36 12 45 13 10 1 14 8 11 22 -3 17
8 31 45 58 26 20 61 50 76 66 44 48 52 37 12 -16z m-145 7 c-36 -31 -50 -37
-50 -20 0 8 66 49 80 49 3 0 -11 -13 -30 -29z m-50 3 c-1 -9 -71 -43 -87 -43
-7 0 -27 -18 -46 -40 -19 -22 -42 -40 -51 -40 -26 0 31 70 58 71 11 0 15 3 9
6 -22 8 -14 23 20 38 34 15 97 20 97 8z m83 -35 c-10 -11 -30 -26 -45 -34 -15
-8 -37 -36 -53 -68 -15 -30 -30 -56 -35 -58 -4 -2 -25 -37 -45 -78 -21 -41
-40 -69 -43 -62 -4 13 -62 -96 -62 -117 0 -5 -10 -12 -22 -16 -14 -4 -18 -8
-10 -12 6 -2 12 -9 12 -14 0 -6 -5 -7 -11 -3 -6 3 -15 0 -20 -7 -29 -44 14 78
81 226 40 90 233 286 263 268 5 -3 0 -14 -10 -25z m1228 18 c19 -8 55 -17 82
-21 47 -7 70 -22 45 -29 -7 -1 -29 -8 -47 -14 -31 -10 -38 -9 -56 8 -12 11
-29 20 -39 20 -26 0 -56 19 -56 35 0 19 28 19 71 1z m-56 -74 c39 -34 44 -42
27 -42 -12 0 -51 14 -88 32 l-67 32 33 29 c32 28 34 29 41 10 4 -11 28 -38 54
-61z m-1925 64 c0 -2 -8 -10 -17 -17 -16 -13 -17 -12 -4 4 13 16 21 21 21 13z
m1224 -28 c3 -13 6 -42 6 -65 0 -23 3 -48 6 -57 8 -20 30 -21 38 0 3 8 10 12
16 9 6 -4 8 -11 5 -16 -11 -17 8 -9 32 12 20 20 23 20 29 5 8 -20 34 -21 34
-1 0 8 5 15 12 15 6 0 9 -3 5 -6 -3 -3 7 -20 24 -38 29 -31 29 -31 6 -34 -19
-2 -24 -12 -34 -60 -12 -66 -52 -154 -71 -158 -7 -1 -8 0 -2 3 20 10 10 20
-15 15 -17 -3 -25 0 -23 8 2 7 -2 14 -8 17 -7 2 -14 -7 -17 -19 -4 -14 -14
-24 -26 -25 -32 -3 -15 54 30 104 35 38 57 75 27 45 -17 -17 -48 -15 -48 3 0
27 -17 16 -35 -24 -10 -24 -22 -38 -30 -35 -7 3 -16 -4 -20 -15 -3 -11 -19
-30 -35 -41 l-29 -20 4 27 c3 17 -11 -3 -32 -47 -43 -87 -55 -75 -18 19 14 36
25 73 25 84 0 24 -29 19 -44 -8 -6 -11 -14 -22 -18 -25 -3 -3 -16 -32 -28 -64
-12 -32 -25 -54 -29 -49 -8 13 -41 12 -42 -1 0 -6 -4 -1 -10 12 -5 14 -5 39 1
65 5 23 10 62 10 87 0 54 25 153 40 158 5 2 10 10 10 18 0 17 8 17 79 0 114
-28 121 -28 121 -1 0 18 4 23 16 18 14 -5 16 2 13 51 -3 37 0 56 7 56 7 0 14
-10 18 -22z m-1291 -27 c-25 -21 -30 -30 -21 -39 7 -7 8 -12 3 -13 -43 -4 -65
-5 -65 -3 0 5 104 84 110 83 3 0 -10 -12 -27 -28z m1657 -98 c0 -23 -19 -23
-31 -1 -7 12 -18 29 -26 36 -7 7 -13 23 -13 35 1 19 5 17 35 -18 19 -22 35
-45 35 -52z m78 62 c-3 -3 -9 2 -12 12 -6 14 -5 15 5 6 7 -7 10 -15 7 -18z
m667 -31 c39 -14 78 -28 87 -31 25 -8 31 -33 8 -33 -24 0 -26 -22 -5 -44 8 -8
15 -17 15 -19 0 -10 -92 14 -180 48 -52 20 -124 44 -160 54 l-64 17 39 17 c63
26 176 22 260 -9z m-2422 -17 c26 -7 47 -14 47 -17 0 -7 -66 -109 -76 -118 -4
-4 2 10 14 30 l21 37 -62 23 c-34 13 -66 22 -72 20 -5 -1 3 9 19 23 18 17 35
24 45 20 9 -4 37 -12 64 -18z m1614 1 c33 -38 35 -47 13 -70 -11 -12 -17 -24
-13 -27 10 -8 12 -51 2 -45 -4 2 -10 18 -14 35 -4 17 -13 42 -21 57 -31 60 -8
95 33 50z m-59 -18 c7 -11 9 -20 4 -20 -10 0 -32 22 -32 32 0 15 15 8 28 -12z
m587 -82 c53 -29 75 -35 75 -17 0 5 -4 7 -10 4 -5 -3 -10 1 -10 9 0 19 1 19
32 7 13 -5 27 -9 32 -9 5 0 12 -4 15 -9 8 -10 31 -25 101 -63 93 -50 93 -52
10 -45 -64 6 -89 14 -180 62 -58 30 -121 71 -140 90 -34 36 -35 36 -5 18 17
-11 53 -32 80 -47z m-315 -36 c17 -41 30 -81 28 -90 -2 -9 -20 28 -40 82 -42
112 -34 117 12 8z m-1149 -49 c-12 -20 -14 -14 -5 12 4 9 9 14 11 11 3 -2 0
-13 -6 -23z m956 -15 c-3 -8 -6 -5 -6 6 -1 11 2 17 5 13 3 -3 4 -12 1 -19z
m-22 -59 c-4 -11 -11 -19 -16 -19 -11 0 -11 7 -2 51 6 31 7 32 15 9 5 -12 6
-31 3 -41z m864 -11 c71 -12 94 -26 96 -57 1 -17 -3 -19 -29 -14 -39 7 -177
83 -152 83 10 0 48 -5 85 -12z m-1208 -20 c-5 -13 -23 -27 -47 -35 l-39 -13
40 35 c47 40 57 43 46 13z m869 -43 c35 -36 62 -65 59 -65 -2 0 -34 29 -69 65
-35 36 -62 65 -59 65 2 0 34 -29 69 -65z m-1365 -20 c4 -27 15 -84 26 -127 24
-98 24 -100 -6 -92 -29 7 -156 -13 -202 -32 -18 -7 -33 -11 -33 -9 0 2 13 24
29 48 17 24 54 88 84 143 89 165 90 166 102 69z m815 -114 c5 -47 10 -117 10
-155 l0 -68 -26 17 c-36 24 -124 31 -148 12 -19 -14 -17 -15 20 -15 21 0 65
-13 98 -28 l58 -27 -5 -46 c-9 -68 -25 -113 -51 -145 -23 -27 -24 -27 -48 -12
-23 15 -27 15 -59 0 -19 -9 -50 -31 -69 -49 -19 -18 -48 -40 -65 -48 -19 -10
-24 -16 -13 -17 9 0 20 5 23 10 3 6 11 10 17 10 7 0 7 -4 -1 -13 -15 -19 -3
-28 20 -14 22 14 34 4 43 -35 4 -17 2 -28 -4 -28 -5 0 -10 5 -10 10 0 13 -37
13 -45 0 -3 -5 1 -33 10 -62 16 -54 48 -98 73 -98 7 0 1 11 -16 25 -36 30 -47
64 -25 72 10 4 25 -5 42 -25 31 -38 54 -40 84 -9 26 28 72 43 63 21 -11 -28
14 -13 30 18 11 22 13 33 5 36 -6 2 -11 16 -11 32 0 18 -11 39 -31 59 -17 17
-27 31 -22 31 11 0 71 -62 107 -112 22 -29 25 -41 17 -56 -6 -11 -8 -22 -5
-24 3 -3 -9 -17 -26 -32 -17 -14 -27 -26 -21 -26 6 0 36 23 66 50 30 28 62 50
70 50 16 0 20 -30 6 -45 -9 -11 -67 -180 -102 -298 -26 -93 -54 -127 -124
-151 -89 -32 -91 -34 -26 -28 l65 5 -38 -46 c-45 -55 -165 -132 -330 -213
l-118 -58 -67 23 c-101 36 -309 151 -355 196 -23 22 -61 76 -85 120 -24 44
-55 96 -68 116 -12 19 -23 38 -23 41 0 4 32 -12 71 -35 55 -32 83 -41 127 -44
31 -1 50 0 42 3 -101 41 -250 234 -295 381 -22 73 -20 79 22 47 l38 -29 -25
34 c-14 18 -29 39 -35 47 -7 10 -1 22 23 46 l32 33 0 -33 c0 -17 -4 -32 -10
-32 -16 0 30 -69 70 -103 35 -30 88 -49 75 -26 -4 5 -11 9 -18 9 -6 0 -28 12
-49 26 -31 22 -37 32 -36 60 1 33 18 50 18 19 0 -8 6 -15 13 -15 8 0 22 -9 32
-20 14 -15 29 -20 54 -18 32 3 37 8 53 48 9 25 17 37 17 26 1 -13 7 -17 19
-14 15 4 17 0 14 -29 -6 -45 11 -42 30 5 13 35 13 43 -1 79 -20 50 -42 76 -84
97 -29 14 -30 16 -8 16 13 0 42 -15 65 -33 76 -60 133 -90 79 -41 l-28 25 28
-17 c39 -24 45 -11 7 16 -17 12 -29 25 -26 28 3 2 13 -1 22 -9 16 -13 16 -12
3 9 -8 12 -19 22 -25 22 -6 0 -21 12 -35 26 -13 14 -34 30 -47 35 -13 5 -21
13 -17 18 20 33 -133 0 -179 -38 -9 -7 -16 -11 -16 -8 0 2 -17 -11 -37 -29
-20 -19 -41 -34 -45 -34 -4 0 -8 -10 -8 -22 0 -19 -2 -20 -10 -8 -18 28 -9 93
20 145 15 28 38 71 50 96 44 94 91 118 252 126 l107 5 10 -38 c21 -81 51 -225
52 -251 0 -16 3 -21 6 -13 2 8 8 24 12 35 5 11 16 46 25 78 10 32 37 104 61
160 l45 102 0 -55 c0 -30 5 -71 10 -90 6 -19 13 -82 15 -140 2 -58 5 -107 5
-110 1 -3 10 11 21 30 15 26 18 29 13 10 -4 -14 -15 -41 -26 -60 -10 -19 -17
-27 -14 -17 3 10 2 16 -3 12 -5 -3 -14 -27 -20 -53 -5 -26 -13 -56 -16 -67 -4
-11 6 -1 20 23 15 23 30 42 34 42 3 0 5 -18 3 -39 -8 -85 0 -80 105 60 183
244 306 457 350 606 l18 61 12 -30 c7 -17 18 -69 23 -117z m-1093 77 c-3 -7
-5 -2 -5 12 0 14 2 19 5 13 2 -7 2 -19 0 -25z m683 22 c0 -5 -5 -10 -11 -10
-5 0 -7 5 -4 10 3 6 8 10 11 10 2 0 4 -4 4 -10z m978 -48 c49 -2 58 -15 48
-67 -7 -38 -26 -45 -47 -18 -10 11 -10 14 -1 9 6 -4 12 -5 12 -2 0 8 -56 36
-71 36 -14 0 35 -50 66 -68 15 -9 16 -11 4 -12 -9 0 -24 9 -34 20 -10 11 -22
20 -27 20 -5 0 -4 -9 2 -20 6 -11 8 -20 5 -20 -6 0 -36 66 -49 106 -5 18 -3
21 21 19 16 -1 47 -3 71 -3z m-460 -189 c30 -101 53 -205 48 -210 -1 -2 -26
20 -54 48 -38 37 -52 46 -52 32 1 -10 24 -35 55 -58 l54 -40 1 -100 c0 -55 3
-124 6 -152 5 -41 4 -53 -6 -53 -20 0 -60 41 -59 59 0 11 2 12 6 4 2 -7 9 -13
14 -13 4 0 6 7 2 16 -3 9 0 20 8 26 11 8 11 9 -2 5 -10 -3 -29 9 -51 32 -19
21 -49 46 -66 57 -30 17 -44 44 -23 44 4 0 14 28 21 63 6 34 15 67 20 72 9 11
16 68 26 193 4 45 10 82 14 82 4 0 21 -48 38 -107z m799 -65 c30 -31 48 -61
62 -108 11 -35 19 -65 17 -67 -1 -2 -31 44 -65 102 -34 58 -65 105 -70 105 -5
0 -11 7 -15 15 -9 24 22 3 71 -47z m-2395 -19 c1 -18 6 -37 11 -40 5 -3 1 -14
-8 -23 -10 -9 -18 -16 -19 -14 -4 6 6 119 10 116 2 -2 4 -20 6 -39z m361 -4
c-3 -9 -8 -14 -10 -11 -3 3 -2 9 2 15 9 16 15 13 8 -4z m614 -17 c-3 -7 -5 -2
-5 12 0 14 2 19 5 13 2 -7 2 -19 0 -25z m-1277 -65 c0 -14 -2 -14 -20 2 -11
10 -20 22 -20 27 0 5 9 4 20 -2 11 -6 20 -18 20 -27z m311 -3 c1 -5 2 -13 3
-17 1 -5 6 -34 10 -66 4 -32 16 -87 25 -123 10 -35 17 -64 15 -64 -17 0 -89
262 -76 275 9 8 22 6 23 -5z m1106 -38 c13 11 13 8 0 -23 -8 -20 -26 -54 -40
-76 -14 -22 -30 -58 -37 -79 -6 -21 -19 -55 -29 -74 l-19 -35 4 65 c3 36 12
81 21 100 29 61 77 133 81 121 3 -9 8 -9 19 1z m1093 -44 c0 -14 -19 1 -31 25
-12 22 -12 22 10 3 11 -11 21 -23 21 -28z m-1650 7 c-14 -17 -40 -20 -40 -6 0
8 18 16 44 20 5 0 3 -6 -4 -14z m568 -45 c-9 -27 -28 -50 -28 -35 0 9 30 65
35 65 2 0 -1 -14 -7 -30z m-683 10 c-9 -15 -45 -32 -45 -22 0 5 10 14 23 20
29 14 29 14 22 2z m1845 -42 c0 -6 -7 -5 -15 2 -8 7 -15 17 -15 22 0 6 7 5 15
-2 8 -7 15 -17 15 -22z m-1807 -48 c-6 -22 -21 -35 -30 -26 -5 5 24 46 33 46
1 0 0 -9 -3 -20z m-54 1 c8 -5 11 -16 7 -26 -3 -9 -1 -25 4 -36 15 -28 -4 -24
-40 8 -32 28 -38 48 -17 56 19 8 31 7 46 -2z m1685 -167 c13 -82 27 -192 31
-244 9 -128 24 -253 37 -314 10 -46 12 -48 20 -26 7 22 7 21 2 -5 -8 -49 -5
-86 16 -153 40 -130 6 -91 -39 44 -40 121 -68 263 -81 424 -13 154 -23 436
-15 428 3 -3 16 -72 29 -154z m212 108 c-8 -7 -25 8 -37 31 -11 21 -10 21 15
-2 14 -14 24 -26 22 -29z m-775 21 c13 -16 12 -17 -3 -4 -10 7 -18 15 -18 17
0 8 8 3 21 -13z m-1011 -47 c0 -8 -7 -16 -15 -20 -17 -6 -18 -4 -9 18 8 20 24
21 24 2z m836 -73 c-10 -10 -19 5 -10 18 6 11 8 11 12 0 2 -7 1 -15 -2 -18z
m204 -53 c0 -5 -5 -10 -11 -10 -5 0 -7 5 -4 10 3 6 8 10 11 10 2 0 4 -4 4 -10z
m-1927 -287 l49 -52 -44 -11 c-64 -17 -144 -56 -220 -106 -37 -24 -71 -44 -76
-44 -5 0 29 77 75 170 46 94 83 176 83 183 0 6 19 -10 42 -38 24 -27 65 -73
91 -102z m226 12 c0 -5 -8 6 -19 25 -11 19 -19 40 -19 45 0 6 8 -6 19 -25 11
-19 19 -39 19 -45z m8 -37 c-3 -8 -6 -5 -6 6 -1 11 2 17 5 13 3 -3 4 -12 1
-19z m2062 -342 c58 -117 155 -239 358 -454 74 -79 133 -145 130 -148 -2 -3
-58 53 -123 123 -66 70 -153 164 -195 207 l-77 80 -63 -109 c-59 -101 -64
-106 -72 -82 -6 20 1 55 31 146 37 115 39 119 57 103 18 -16 18 -16 3 8 -9 14
-21 24 -26 23 -17 -4 -259 65 -297 85 l-36 18 31 43 c29 39 34 42 63 35 18 -3
59 -19 92 -34 49 -22 67 -38 99 -84 21 -31 41 -54 44 -51 3 3 -4 15 -15 28
-22 24 -84 129 -127 215 -27 53 -29 112 -4 112 5 0 7 14 4 33 -3 17 12 -19 33
-82 22 -63 62 -160 90 -215z m-222 232 c-36 -72 -109 -181 -125 -186 -8 -2 0
19 18 49 17 30 43 80 57 112 14 31 31 57 38 57 7 0 16 7 19 16 4 9 9 14 13 11
3 -4 -6 -30 -20 -59z m581 32 c-7 -10 -14 -17 -17 -15 -4 4 18 35 25 35 2 0
-1 -9 -8 -20z m-2358 -120 c6 0 13 7 16 15 7 16 65 -41 141 -137 25 -32 48
-57 52 -56 25 3 41 -5 41 -19 0 -15 -2 -16 -10 -3 -5 8 -12 11 -16 8 -9 -10
-70 36 -139 106 -33 34 -78 72 -100 85 -22 13 -53 40 -70 60 -25 31 -22 29 22
-11 29 -27 57 -48 63 -48z m5 20 c3 -5 2 -10 -4 -10 -5 0 -13 5 -16 10 -3 6
-2 10 4 10 5 0 13 -4 16 -10z m159 -45 c9 -14 16 -27 16 -31 0 -10 -40 28 -51
48 -15 27 16 12 35 -17z m206 -23 c-10 -2 -29 2 -41 8 l-21 12 23 12 c21 11
26 10 41 -8 16 -20 16 -21 -2 -24z m1280 -13 c-15 -26 -26 -31 -40 -14 -17 20
3 45 30 38 15 -4 17 -9 10 -24z m-1113 -36 c-11 -10 -37 12 -37 31 1 21 1 21
21 -3 11 -13 18 -26 16 -28z m-316 20 c13 -16 12 -17 -3 -4 -10 7 -18 15 -18
17 0 8 8 3 21 -13z m-15 -20 c-7 -7 -26 7 -26 19 0 6 6 6 15 -2 9 -7 13 -15
11 -17z m1894 15 c0 -7 3 -24 6 -38 5 -25 5 -24 -20 5 -31 36 -32 45 -6 45 11
0 20 -6 20 -12z m60 -25 c0 -13 -3 -13 -15 -3 -8 7 -15 19 -15 27 0 13 3 13
15 3 8 -7 15 -19 15 -27z m-140 -4 c0 -6 -4 -7 -10 -4 -5 3 -10 11 -10 16 0 6
5 7 10 4 6 -3 10 -11 10 -16z m-1731 -40 c44 -45 46 -50 22 -44 -30 8 -71 43
-71 62 0 7 -3 12 -7 12 -20 -3 -26 2 -13 11 8 5 16 10 17 10 2 0 25 -23 52
-51z m1236 12 c-12 -23 -13 -36 -5 -51 8 -15 6 -21 -10 -30 -11 -6 -25 -8 -30
-5 -6 3 -10 1 -10 -4 0 -6 6 -11 13 -11 13 -1 -21 -30 -35 -30 -24 0 5 70 55
132 35 44 45 43 22 -1z m-638 -127 c-3 -3 -12 -4 -19 -1 -8 3 -5 6 6 6 11 1
17 -2 13 -5z m43 -14 c8 -5 11 -10 5 -10 -5 0 -17 5 -25 10 -8 5 -10 10 -5 10
6 0 17 -5 25 -10z m1053 -3 c9 -1 17 -5 17 -10 0 -7 -18 -46 -25 -55 -4 -5
-85 37 -85 44 0 3 4 3 9 0 5 -3 12 1 15 10 4 10 2 13 -6 8 -7 -4 -8 -3 -4 5 4
6 18 9 34 5 15 -3 35 -6 45 -7z m-951 -21 c38 0 32 -14 -7 -17 -14 -1 -10 -4
10 -9 20 -5 -8 -8 -80 -8 -78 -1 -115 3 -128 12 -15 12 -15 14 -2 19 8 4 14 1
12 -6 -1 -9 22 -12 81 -13 47 0 79 3 74 8 -5 5 -18 10 -30 11 -11 0 -18 5 -15
9 2 5 14 5 26 1 12 -4 39 -8 59 -7z m-312 -96 c29 -49 77 -119 108 -155 30
-36 52 -68 49 -71 -11 -12 -70 54 -116 129 -52 87 -104 187 -97 187 2 0 27
-40 56 -90z m100 30 c-20 -13 -33 -13 -25 0 3 6 14 10 23 10 15 0 15 -2 2 -10z
m72 -4 c13 -19 9 -43 -7 -43 -9 0 -14 6 -11 14 3 7 1 13 -3 13 -5 0 -11 6 -14
13 -6 16 25 19 35 3z m143 -17 c-20 -18 -37 -30 -38 -28 -1 2 -13 16 -26 32
l-24 27 62 0 62 0 -36 -31z m154 -15 c32 -53 15 -116 -25 -100 -12 5 -10 11
12 29 l27 24 -26 35 c-29 37 -33 48 -18 48 5 0 19 -16 30 -36z m-34 -22 c-11
-11 -34 8 -28 24 6 15 7 15 20 -1 7 -10 11 -21 8 -23z m1255 -16 c0 -12 -5 -7
-19 24 -11 24 -11 24 3 6 9 -11 16 -24 16 -30z m-1300 17 c0 -5 -12 -21 -26
-37 -24 -27 -26 -28 -39 -10 -31 42 -26 54 21 54 24 0 44 -3 44 -7z m-135 -13
c-4 -6 -11 -8 -16 -5 -5 3 -6 -1 -3 -9 3 -9 1 -16 -5 -16 -6 0 -11 2 -11 4 0
2 -3 11 -6 20 -5 12 0 16 21 16 15 0 24 -4 20 -10z m572 -6 c-3 -3 -12 -4 -19
-1 -8 3 -5 6 6 6 11 1 17 -2 13 -5z m-57 -14 c13 -8 12 -10 -3 -10 -10 0 -32
-7 -50 -15 l-32 -16 30 25 c34 29 34 29 55 16z m852 -175 c35 -44 74 -95 87
-112 l22 -33 -28 -1 c-15 -1 -32 0 -38 1 -5 1 -20 2 -32 2 -14 0 -26 10 -34
30 -6 16 -20 33 -29 38 -25 14 -34 59 -16 79 15 16 16 44 3 57 -4 4 -7 12 -7
17 0 6 2 8 4 6 2 -2 32 -40 68 -84z m-968 69 c24 -9 9 -24 -25 -24 -17 0 -39
-5 -50 -10 -10 -6 -19 -8 -19 -6 0 4 65 43 77 46 1 0 8 -3 17 -6z m552 -49
c14 -31 23 -62 20 -70 -9 -24 -36 -17 -46 11 -11 27 -14 114 -4 114 3 0 17
-25 30 -55z m-866 15 c0 -11 -2 -20 -4 -20 -2 0 -6 9 -9 20 -3 11 -1 20 4 20
5 0 9 -9 9 -20z m1206 -7 c-10 -10 -19 5 -10 18 6 11 8 11 12 0 2 -7 1 -15 -2
-18z m-963 -46 c-43 -36 -74 -42 -33 -7 19 17 40 30 48 30 7 0 1 -10 -15 -23z
m-200 -10 c4 -10 -2 -13 -21 -9 -24 5 -25 6 -7 13 11 4 21 8 21 8 1 1 4 -5 7
-12z m105 -7 c-7 -11 -18 -20 -25 -20 -6 0 -18 -3 -27 -6 -9 -3 -16 -2 -16 2
0 7 41 29 78 43 1 1 -3 -8 -10 -19z m535 6 c4 -10 -16 -18 -83 -30 -139 -25
-161 -20 -51 14 34 10 59 14 55 9 -6 -10 26 -12 50 -3 9 3 13 10 10 15 -3 5
-1 9 4 9 6 0 12 -6 15 -14z m-673 -36 c-20 -13 -33 -13 -25 0 3 6 14 10 23 10
15 0 15 -2 2 -10z m93 -37 c-7 -2 -21 -2 -30 0 -10 3 -4 5 12 5 17 0 24 -2 18
-5z m760 -33 c-3 -12 -8 -19 -11 -16 -5 6 5 36 12 36 2 0 2 -9 -1 -20z m-942
-7 c13 -16 12 -17 -3 -4 -17 13 -22 21 -14 21 2 0 10 -8 17 -17z m694 8 c-11
-9 -94 -26 -84 -17 4 4 33 13 89 25 2 1 0 -3 -5 -8z m53 -16 c-3 -3 -9 2 -12
12 -6 14 -5 15 5 6 7 -7 10 -15 7 -18z m-6 -15 c6 0 21 8 32 17 12 9 8 3 -9
-14 -20 -20 -31 -26 -33 -16 -2 7 -7 11 -11 9 -4 -3 -8 5 -8 17 -2 20 -1 20 8
5 6 -10 15 -18 21 -18z m178 -30 c13 -8 -1 -60 -16 -60 -15 0 -19 26 -6 34 5
3 7 20 6 38 -2 18 -1 24 3 13 3 -11 9 -22 13 -25z m-110 27 c0 -2 -10 -12 -22
-23 l-23 -19 19 23 c18 21 26 27 26 19z m-115 -23 c20 -8 35 -18 32 -20 -3 -3
-20 1 -39 10 -18 8 -53 17 -78 19 l-45 4 46 1 c26 1 63 -5 84 -14z m80 -42
c-3 -3 -11 0 -18 7 -9 10 -8 11 6 5 10 -3 15 -9 12 -12z m95 -2 c0 -11 -4 -20
-9 -20 -5 0 -7 9 -4 20 3 11 7 20 9 20 2 0 4 -9 4 -20z m-368 -9 c-13 -8 9
-31 64 -69 16 -10 15 -11 -6 -1 -55 25 -94 79 -57 79 8 0 8 -3 -1 -9z"/>
<path d="M1363 2668 c-20 -26 -26 -41 -15 -34 12 7 36 46 29 46 -3 0 -9 -6
-14 -12z"/>
<path d="M1510 2546 c0 -8 4 -17 9 -21 6 -3 9 4 8 15 -1 23 -17 28 -17 6z"/>
<path d="M2020 2590 c0 -5 5 -10 10 -10 6 0 10 5 10 10 0 6 -4 10 -10 10 -5 0
-10 -4 -10 -10z"/>
<path d="M1636 2558 c-9 -35 -7 -68 4 -68 6 0 10 20 10 45 0 50 -4 57 -14 23z"/>
<path d="M2007 2513 c-3 -16 -3 -30 -1 -33 7 -7 24 23 24 43 0 27 -17 20 -23
-10z"/>
<path d="M1295 2220 c-3 -5 -1 -10 4 -10 6 0 11 5 11 10 0 6 -2 10 -4 10 -3 0
-8 -4 -11 -10z"/>
<path d="M1344 1795 c11 -8 25 -15 30 -15 6 0 2 7 -8 15 -11 8 -25 15 -30 15
-6 0 -2 -7 8 -15z"/>
<path d="M1627 1521 c-4 -17 -3 -21 5 -13 5 5 8 16 6 23 -3 8 -7 3 -11 -10z"/>
<path d="M1245 1480 c-23 -26 -4 -26 26 0 18 15 20 19 8 20 -9 0 -24 -9 -34
-20z"/>
<path d="M2094 1443 c-3 -11 -18 -24 -32 -30 -17 -7 -21 -11 -10 -12 25 -1 75
44 59 53 -8 5 -14 1 -17 -11z"/>
<path d="M1515 1020 c-8 -13 15 -13 35 0 12 8 11 10 -7 10 -12 0 -25 -4 -28
-10z"/>
<path d="M1708 1013 c7 -3 16 -2 19 1 4 3 -2 6 -13 5 -11 0 -14 -3 -6 -6z"/>
<path d="M2724 2211 c20 -22 26 -25 26 -13 0 4 -10 13 -22 21 -23 14 -23 14
-4 -8z"/>
<path d="M175 1276 l-20 -38 20 -16 c12 -9 24 -26 29 -37 5 -15 9 -16 15 -6
12 19 30 5 24 -19 -4 -16 -8 -18 -20 -9 -22 19 -41 -5 -22 -27 12 -15 12 -16
-10 -9 -20 6 -23 4 -18 -9 4 -10 3 -15 -2 -12 -5 3 -14 -1 -21 -9 -7 -8 -9
-15 -5 -15 13 0 95 50 95 58 0 4 10 18 21 32 11 14 18 19 14 13 -3 -7 -1 -13
6 -13 8 0 9 -4 0 -13 -8 -10 -7 -14 4 -14 8 0 17 7 19 14 3 8 10 11 16 8 6 -3
7 1 4 9 -3 9 -12 16 -20 16 -8 0 -14 6 -14 13 0 7 -21 37 -48 66 l-47 54 -20
-37z m95 -61 c14 -16 10 -18 -14 -9 -9 3 -16 10 -16 15 0 14 16 11 30 -6z"/>
<path d="M2490 1068 c0 -24 58 -182 76 -204 14 -18 14 -17 3 6 -7 14 -27 68
-45 120 -18 52 -33 87 -34 78z"/>
<path d="M2915 349 c3 -8 1 -28 -5 -43 -9 -25 -7 -31 15 -52 14 -13 25 -27 25
-31 0 -5 9 -9 20 -10 13 -1 18 2 13 10 -4 7 0 6 10 -2 9 -7 17 -10 17 -6 0 4
8 1 17 -6 15 -13 15 -11 -1 16 -22 38 -119 146 -111 124z"/>
<path d="M2890 325 c0 -8 2 -15 4 -15 2 0 6 7 10 15 3 8 1 15 -4 15 -6 0 -10
-7 -10 -15z"/>
<path d="M130 3145 c7 -9 15 -13 17 -11 7 7 -7 26 -19 26 -6 0 -6 -6 2 -15z"/>
<path d="M2930 3150 c0 -13 11 -13 30 0 12 8 11 10 -7 10 -13 0 -23 -4 -23
-10z"/>
<path d="M80 3143 c0 -15 19 -37 26 -31 3 4 -1 14 -10 23 -9 9 -16 13 -16 8z"/>
<path d="M2908 3112 c-36 -16 -50 -32 -28 -32 18 0 70 30 70 40 0 6 -1 10 -2
9 -2 0 -20 -8 -40 -17z"/>
<path d="M2790 3045 c-7 -8 -8 -15 -2 -15 5 0 15 7 22 15 7 8 8 15 2 15 -5 0
-15 -7 -22 -15z"/>
<path d="M2810 3019 c-14 -6 -43 -14 -65 -19 -80 -16 -174 -57 -221 -95 -26
-21 -42 -41 -36 -43 6 -2 24 8 39 22 34 32 73 51 144 70 82 23 179 60 179 68
0 10 -9 9 -40 -3z"/>
<path d="M2960 2950 c0 -5 5 -10 11 -10 5 0 7 5 4 10 -3 6 -8 10 -11 10 -2 0
-4 -4 -4 -10z"/>
<path d="M855 2864 c-54 -22 -131 -81 -120 -92 2 -3 25 12 49 32 25 20 69 48
98 61 70 31 50 31 -27 -1z"/>
<path d="M0 2679 c0 -5 5 -7 10 -4 5 3 10 8 10 11 0 2 -4 4 -10 4 -5 0 -10 -5
-10 -11z"/>
<path d="M454 2604 c3 -8 2 -12 -4 -9 -6 3 -10 2 -10 -3 0 -5 -10 -12 -22 -16
l-23 -6 23 -15 c22 -16 42 -13 42 6 0 6 -4 7 -10 4 -5 -3 -10 -1 -10 6 0 6 8
9 20 6 11 -3 18 -1 14 4 -3 5 3 9 13 9 17 1 17 2 -1 15 -26 19 -40 19 -32 -1z"/>
<path d="M404 2535 c8 -8 18 -15 22 -15 3 0 1 7 -6 15 -7 8 -17 15 -22 15 -5
0 -3 -7 6 -15z"/>
<path d="M370 2459 c-14 -26 -6 -36 15 -19 23 19 18 3 -15 -46 -17 -24 -29
-44 -26 -44 3 0 -18 -22 -47 -50 -29 -27 -47 -50 -40 -50 7 0 28 16 47 35 20
19 33 35 31 35 -3 0 8 12 23 28 47 48 74 91 67 112 -8 26 -41 25 -55 -1z"/>
<path d="M451 2254 c0 -11 3 -14 6 -6 3 7 2 16 -1 19 -3 4 -6 -2 -5 -13z"/>
<path d="M197 2136 c-4 -10 -1 -13 8 -9 8 3 12 9 9 14 -7 12 -11 11 -17 -5z"/>
<path d="M385 2079 c-4 -6 -5 -12 -2 -15 2 -3 7 2 10 11 7 17 1 20 -8 4z"/>
<path d="M370 2015 c0 -8 4 -15 8 -15 5 0 9 7 9 15 0 8 -4 15 -9 15 -4 0 -8
-7 -8 -15z"/>
</g>
</svg>
